<?xml version="1.0" encoding="utf-8"?>
<!-- Generator: Adobe Illustrator 23.0.2, SVG Export Plug-In . SVG Version: 6.00 Build 0)  -->
<svg version="1.1" id="图层_1" xmlns="http://www.w3.org/2000/svg" xmlns:xlink="http://www.w3.org/1999/xlink" x="0px" y="0px"
	 viewBox="0 0 50 40" style="enable-background:new 0 0 50 40;" xml:space="preserve">
<style type="text/css">
	.st0{opacity:0.2;}
	.st1{fill:#00FEFB;}
	.st2{opacity:0.6;fill:#00FEFB;}
</style>
<g class="st0">
	<path class="st1" d="M43,36H7c-2.2,0-4-1.8-4-4V8c0-2.2,1.8-4,4-4h36c2.2,0,4,1.8,4,4v24C47,34.2,45.2,36,43,36z"/>
</g>
<g>
	<path class="st1" d="M43,5c1.7,0,3,1.3,3,3v24c0,1.7-1.3,3-3,3H7c-1.7,0-3-1.3-3-3V8c0-1.7,1.3-3,3-3H43 M43,4H7C4.8,4,3,5.8,3,8
		v24c0,2.2,1.8,4,4,4h36c2.2,0,4-1.8,4-4V8C47,5.8,45.2,4,43,4L43,4z"/>
</g>
<g>
	<path class="st2" d="M7.8,18.5c-0.1,0-0.2-0.1-0.2-0.1V8.7c0-0.1,0.1-0.2,0.2-0.2h15.5c0.1,0,0.2,0.1,0.3,0.3l0,9.6
		c0,0.1-0.1,0.2-0.2,0.2H7.8z"/>
	<path class="st1" d="M23.1,9v9h-15V9H23.1 M23.3,8H7.8C7.4,8,7.1,8.4,7.1,8.7v9.7c0,0.3,0.3,0.6,0.7,0.6h15.6
		c0.4,0,0.7-0.3,0.7-0.7V8.7C24,8.4,23.7,8,23.3,8L23.3,8z"/>
</g>
<g>
	<path class="st2" d="M26.9,18.5c-0.1,0-0.2-0.1-0.2-0.1V8.7c0-0.1,0.1-0.2,0.2-0.2h15.5c0.1,0,0.2,0.1,0.3,0.3l0,9.6
		c0,0.1-0.1,0.2-0.2,0.2H26.9z"/>
	<g>
		<path class="st1" d="M42.2,9v9h-15V9H42.2 M42.4,8H26.9c-0.4,0-0.7,0.3-0.7,0.7v9.7c0,0.3,0.3,0.6,0.7,0.6h15.6
			c0.4,0,0.7-0.3,0.7-0.7V8.7C43.1,8.4,42.8,8,42.4,8L42.4,8z"/>
	</g>
</g>
<g>
	<path class="st2" d="M7.8,31.4c-0.1,0-0.2-0.1-0.2-0.1v-9.7c0-0.1,0.1-0.2,0.2-0.2h15.5c0.1,0,0.2,0.1,0.3,0.3l0,9.6
		c0,0.1-0.1,0.2-0.2,0.2H7.8z"/>
	<g>
		<path class="st1" d="M23.1,21.9v9h-15v-9H23.1 M23.3,20.9H7.8c-0.4,0-0.7,0.3-0.7,0.7v9.7c0,0.3,0.3,0.6,0.7,0.6h15.6
			c0.4,0,0.7-0.3,0.7-0.7v-9.6C24,21.2,23.7,20.9,23.3,20.9L23.3,20.9z"/>
	</g>
</g>
<g>
	<path class="st2" d="M26.9,31.4c-0.1,0-0.2-0.1-0.2-0.1v-9.7c0-0.1,0.1-0.2,0.2-0.2h15.5c0.1,0,0.2,0.1,0.3,0.3l0,9.6
		c0,0.1-0.1,0.2-0.2,0.2H26.9z"/>
	<g>
		<path class="st1" d="M42.2,21.9v9h-15v-9H42.2 M42.4,20.9H26.9c-0.4,0-0.7,0.3-0.7,0.7v9.7c0,0.3,0.3,0.6,0.7,0.6h15.6
			c0.4,0,0.7-0.3,0.7-0.7v-9.6C43.1,21.2,42.8,20.9,42.4,20.9L42.4,20.9z"/>
	</g>
</g>
</svg>
