<?xml version="1.0" encoding="utf-8"?>
<!-- Generator: Adobe Illustrator 23.0.2, SVG Export Plug-In . SVG Version: 6.00 Build 0)  -->
<svg version="1.1" id="图层_1" xmlns="http://www.w3.org/2000/svg" xmlns:xlink="http://www.w3.org/1999/xlink" x="0px" y="0px"
	 viewBox="0 0 50 40" style="enable-background:new 0 0 50 40;" xml:space="preserve">
<style type="text/css">
	.st0{opacity:0.2;}
	.st1{fill:#00FEFB;}
	.st2{opacity:0.6;fill:#00FEFB;enable-background:new    ;}
</style>
<g class="st0">
	<path class="st1" d="M43,36H7c-2.2,0-4-1.8-4-4V8c0-2.2,1.8-4,4-4h36c2.2,0,4,1.8,4,4v24C47,34.2,45.2,36,43,36z"/>
</g>
<g>
	<path class="st1" d="M43,5c1.7,0,3,1.3,3,3v24c0,1.7-1.3,3-3,3H7c-1.7,0-3-1.3-3-3V8c0-1.7,1.3-3,3-3H43 M43,4H7C4.8,4,3,5.8,3,8
		v24c0,2.2,1.8,4,4,4h36c2.2,0,4-1.8,4-4V8C47,5.8,45.2,4,43,4L43,4z"/>
</g>
<g>
	<path class="st2" d="M32.9,14.2V8.4l9.8,0.1l0,0v5.7H32.9z"/>
	<g>
		<path class="st1" d="M42.1,9v4.7h-8.8V9H42.1 M42.6,8h-9.8c-0.3,0-0.4,0.2-0.4,0.4v5.9c0,0.2,0.2,0.4,0.4,0.4h9.9
			c0.3,0,0.4-0.2,0.4-0.4V8.4C43.1,8.3,42.9,8,42.6,8L42.6,8z"/>
	</g>
</g>
<g>
	<path class="st2" d="M32.9,22.8V17l9.8,0.1l0,0v5.7H32.9z"/>
	<g>
		<path class="st1" d="M42.1,17.6v4.7h-8.8v-4.7L42.1,17.6 M42.6,16.6h-9.8c-0.3,0-0.4,0.2-0.4,0.4v5.9c0,0.2,0.2,0.4,0.4,0.4h9.9
			c0.3,0,0.4-0.2,0.4-0.4V17C43.1,16.8,42.9,16.6,42.6,16.6L42.6,16.6z"/>
	</g>
</g>
<g>
	<path class="st2" d="M32.9,31.4v-5.8l9.8,0.1l0,0v5.7C42.7,31.4,32.9,31.4,32.9,31.4z"/>
	<g>
		<path class="st1" d="M42.1,26.2v4.7h-8.8v-4.7H42.1 M42.6,25.2h-9.8c-0.3,0-0.4,0.2-0.4,0.4v5.9c0,0.2,0.2,0.4,0.4,0.4h9.9
			c0.3,0,0.4-0.2,0.4-0.4v-5.8C43.1,25.4,42.9,25.2,42.6,25.2L42.6,25.2z"/>
	</g>
</g>
<g>
	<path class="st2" d="M20.2,31.4v-5.8l9.8,0.1l0,0v5.7C30,31.4,20.2,31.4,20.2,31.4z"/>
	<g>
		<path class="st1" d="M29.5,26.2v4.7h-8.8v-4.7H29.5 M30,25.2h-9.8c-0.3,0-0.4,0.2-0.4,0.4v5.9c0,0.2,0.2,0.4,0.4,0.4H30
			c0.3,0,0.4-0.2,0.4-0.4v-5.8C30.4,25.4,30.2,25.2,30,25.2L30,25.2z"/>
	</g>
</g>
<g>
	<path class="st2" d="M7.5,31.4v-5.8l9.8,0.1l0,0v5.7C17.3,31.4,7.5,31.4,7.5,31.4z"/>
	<g>
		<path class="st1" d="M16.8,26.2v4.7H8v-4.7H16.8 M17.3,25.2H7.5c-0.3,0-0.4,0.2-0.4,0.4v5.9c0,0.2,0.2,0.4,0.4,0.4h9.9
			c0.3,0,0.4-0.2,0.4-0.4v-5.8C17.8,25.4,17.6,25.2,17.3,25.2L17.3,25.2z"/>
	</g>
</g>
<g>
	<path class="st2" d="M20.2,22.8V17l9.8,0.1l0,0v5.7C30,22.8,20.2,22.8,20.2,22.8z"/>
	<g>
		<path class="st1" d="M29.5,17.6v4.7h-8.8v-4.7H29.5 M30,16.6h-9.8c-0.3,0-0.4,0.2-0.4,0.4v5.9c0,0.2,0.2,0.4,0.4,0.4H30
			c0.3,0,0.4-0.2,0.4-0.4v-5.8C30.4,16.8,30.2,16.6,30,16.6L30,16.6z"/>
	</g>
</g>
<g>
	<path class="st2" d="M7.5,22.8V17l9.8,0.1l0,0v5.7C17.3,22.8,7.5,22.8,7.5,22.8z"/>
	<g>
		<path class="st1" d="M16.8,17.6v4.7H8v-4.7H16.8 M17.3,16.6H7.5c-0.3,0-0.4,0.2-0.4,0.4v5.9c0,0.2,0.2,0.4,0.4,0.4h9.9
			c0.3,0,0.4-0.2,0.4-0.4v-5.8C17.8,16.8,17.6,16.6,17.3,16.6L17.3,16.6z"/>
	</g>
</g>
<g>
	<path class="st2" d="M20.2,14.2V8.4L30,8.5l0,0v5.7C30,14.2,20.2,14.2,20.2,14.2z"/>
	<g>
		<path class="st1" d="M29.5,9v4.7h-8.8V9H29.5 M30,8h-9.8c-0.3,0-0.4,0.2-0.4,0.4v5.9c0,0.2,0.2,0.4,0.4,0.4H30
			c0.3,0,0.4-0.2,0.4-0.4V8.5C30.4,8.2,30.2,8,30,8L30,8z"/>
	</g>
</g>
<g>
	<path class="st2" d="M7.5,14.2V8.4l9.8,0.1l0,0v5.7C17.3,14.2,7.5,14.2,7.5,14.2z"/>
	<g>
		<path class="st1" d="M16.8,9v4.7H8V9H16.8 M17.3,8H7.5C7.2,8,7.1,8.2,7.1,8.4v5.9c0,0.2,0.2,0.4,0.4,0.4h9.9
			c0.3,0,0.4-0.2,0.4-0.4V8.5C17.8,8.2,17.6,8,17.3,8L17.3,8z"/>
	</g>
</g>
</svg>
